<svg width="35" height="35" viewBox="0 0 35 35" fill="none" xmlns="http://www.w3.org/2000/svg">
<path d="M7.29491 8.75011C7.10299 8.75122 6.91273 8.71443 6.73505 8.64186C6.55737 8.56928 6.39576 8.46235 6.2595 8.32719C6.12281 8.19162 6.01432 8.03033 5.94028 7.85262C5.86624 7.6749 5.82812 7.48429 5.82812 7.29177C5.82812 7.09926 5.86624 6.90864 5.94028 6.73093C6.01432 6.55322 6.12281 6.39193 6.2595 6.25636C7.01382 5.51642 7.97029 5.01632 9.00837 4.81908C10.0465 4.62184 11.1197 4.7363 12.0928 5.14802C13.5512 5.51261 14.2512 5.64386 15.0095 4.79802C15.1455 4.66205 15.3069 4.55419 15.4846 4.4806C15.6622 4.40702 15.8526 4.36914 16.0449 4.36914C16.2372 4.36914 16.4276 4.40702 16.6053 4.4806C16.7829 4.55419 16.9444 4.66205 17.0803 4.79802C17.2163 4.934 17.3242 5.09542 17.3978 5.27308C17.4713 5.45073 17.5092 5.64115 17.5092 5.83344C17.5092 6.02574 17.4713 6.21615 17.3978 6.3938C17.3242 6.57146 17.2163 6.73289 17.0803 6.86886C16.326 7.6088 15.3695 8.1089 14.3315 8.30614C13.2934 8.50337 12.2201 8.38892 11.247 7.97719C9.78866 7.61261 9.08866 7.48136 8.33033 8.32719C8.19406 8.46235 8.03246 8.56928 7.85478 8.64186C7.6771 8.71443 7.48684 8.75122 7.29491 8.75011Z" fill="#B5B5B5"/>
<path d="M29.9688 14.8314C29.7687 14.6983 29.539 14.6167 29.2998 14.5938C29.0606 14.5709 28.8195 14.6074 28.5979 14.7002L23.3333 16.9606V16.0418C23.3331 15.8011 23.2734 15.5642 23.1593 15.3522C23.0453 15.1402 22.8806 14.9598 22.6799 14.8269C22.4792 14.6941 22.2487 14.613 22.009 14.5909C21.7693 14.5687 21.5279 14.6063 21.3062 14.7002L16.0417 16.9606V16.0418C16.0415 15.8011 15.9817 15.5642 15.8677 15.3522C15.7537 15.1402 15.5889 14.9598 15.3882 14.8269C15.1875 14.6941 14.957 14.613 14.7173 14.5909C14.4777 14.5687 14.2362 14.6063 14.0146 14.7002L10.2083 16.3335V11.6668C10.2083 11.2801 10.0547 10.9091 9.7812 10.6356C9.50771 10.3621 9.13677 10.2085 8.75 10.2085H5.83333C5.44656 10.2085 5.07563 10.3621 4.80214 10.6356C4.52865 10.9091 4.375 11.2801 4.375 11.6668V27.7085C4.375 28.482 4.68229 29.2239 5.22927 29.7709C5.77625 30.3179 6.51812 30.6252 7.29167 30.6252H27.7083C28.4819 30.6252 29.2237 30.3179 29.7707 29.7709C30.3177 29.2239 30.625 28.482 30.625 27.7085V16.0418C30.6238 15.8016 30.5632 15.5655 30.4487 15.3543C30.3342 15.1431 30.1694 14.9635 29.9688 14.8314ZM13.125 24.0627C13.125 24.2561 13.0482 24.4415 12.9114 24.5783C12.7747 24.715 12.5892 24.7918 12.3958 24.7918H10.9375C10.7441 24.7918 10.5586 24.715 10.4219 24.5783C10.2852 24.4415 10.2083 24.2561 10.2083 24.0627V22.6043C10.2083 22.4109 10.2852 22.2255 10.4219 22.0887C10.5586 21.952 10.7441 21.8752 10.9375 21.8752H12.3958C12.5892 21.8752 12.7747 21.952 12.9114 22.0887C13.0482 22.2255 13.125 22.4109 13.125 22.6043V24.0627ZM18.9583 24.0627C18.9583 24.2561 18.8815 24.4415 18.7448 24.5783C18.608 24.715 18.4226 24.7918 18.2292 24.7918H16.7708C16.5774 24.7918 16.392 24.715 16.2552 24.5783C16.1185 24.4415 16.0417 24.2561 16.0417 24.0627V22.6043C16.0417 22.4109 16.1185 22.2255 16.2552 22.0887C16.392 21.952 16.5774 21.8752 16.7708 21.8752H18.2292C18.4226 21.8752 18.608 21.952 18.7448 22.0887C18.8815 22.2255 18.9583 22.4109 18.9583 22.6043V24.0627ZM24.7917 24.0627C24.7917 24.2561 24.7148 24.4415 24.5781 24.5783C24.4414 24.715 24.2559 24.7918 24.0625 24.7918H22.6042C22.4108 24.7918 22.2253 24.715 22.0886 24.5783C21.9518 24.4415 21.875 24.2561 21.875 24.0627V22.6043C21.875 22.4109 21.9518 22.2255 22.0886 22.0887C22.2253 21.952 22.4108 21.8752 22.6042 21.8752H24.0625C24.2559 21.8752 24.4414 21.952 24.5781 22.0887C24.7148 22.2255 24.7917 22.4109 24.7917 22.6043V24.0627Z" fill="#B5B5B5"/>
</svg>
