<svg width="32" height="32" viewBox="0 0 32 32" fill="none" xmlns="http://www.w3.org/2000/svg">
<path d="M12 4.00001H6.66667C5.95942 4.00001 5.28115 4.28096 4.78105 4.78106C4.28095 5.28116 4 5.95943 4 6.66668V12C4 12.7073 4.28095 13.3855 4.78105 13.8856C5.28115 14.3857 5.95942 14.6667 6.66667 14.6667H12C12.7072 14.6667 13.3855 14.3857 13.8856 13.8856C14.3857 13.3855 14.6667 12.7073 14.6667 12V6.66668C14.6667 5.95943 14.3857 5.28116 13.8856 4.78106C13.3855 4.28096 12.7072 4.00001 12 4.00001ZM12 17.3333H6.66667C5.95942 17.3333 5.28115 17.6143 4.78105 18.1144C4.28095 18.6145 4 19.2928 4 20V25.3333C4 26.0406 4.28095 26.7189 4.78105 27.219C5.28115 27.7191 5.95942 28 6.66667 28H12C12.7072 28 13.3855 27.7191 13.8856 27.219C14.3857 26.7189 14.6667 26.0406 14.6667 25.3333V20C14.6667 19.2928 14.3857 18.6145 13.8856 18.1144C13.3855 17.6143 12.7072 17.3333 12 17.3333ZM28.2133 7.45334L24.5467 3.78668C24.047 3.29001 23.3712 3.01123 22.6667 3.01123C21.9622 3.01123 21.2863 3.29001 20.7867 3.78668L17.12 7.45334C16.6233 7.95298 16.3446 8.62885 16.3446 9.33334C16.3446 10.0378 16.6233 10.7137 17.12 11.2133L20.7867 14.88C21.2863 15.3767 21.9622 15.6555 22.6667 15.6555C23.3712 15.6555 24.047 15.3767 24.5467 14.88L28.2133 11.2133C28.71 10.7137 28.9888 10.0378 28.9888 9.33334C28.9888 8.62885 28.71 7.95298 28.2133 7.45334ZM25.3333 17.3333H20C19.2928 17.3333 18.6145 17.6143 18.1144 18.1144C17.6143 18.6145 17.3333 19.2928 17.3333 20V25.3333C17.3333 26.0406 17.6143 26.7189 18.1144 27.219C18.6145 27.7191 19.2928 28 20 28H25.3333C26.0406 28 26.7189 27.7191 27.219 27.219C27.719 26.7189 28 26.0406 28 25.3333V20C28 19.2928 27.719 18.6145 27.219 18.1144C26.7189 17.6143 26.0406 17.3333 25.3333 17.3333Z" fill="#F5F5F5"/>
</svg>
