<svg width="28" height="22" viewBox="0 0 28 22" fill="none" xmlns="http://www.w3.org/2000/svg">
<path d="M23.3307 21.6668H4.66406C3.6032 21.6668 2.58578 21.2454 1.83564 20.4953C1.08549 19.7451 0.664063 18.7277 0.664062 17.6668V4.3335C0.664063 3.27263 1.08549 2.25521 1.83564 1.50507C2.58578 0.754924 3.6032 0.333496 4.66406 0.333496H10.2241C11.2846 0.33443 12.3013 0.75647 13.0507 1.50683L14.5441 3.00016H23.3307C24.3916 3.00016 25.409 3.42159 26.1592 4.17174C26.9093 4.92188 27.3307 5.9393 27.3307 7.00016V17.6668C27.3307 18.7277 26.9093 19.7451 26.1592 20.4953C25.409 21.2454 24.3916 21.6668 23.3307 21.6668Z" fill="#F5F5F5"/>
</svg>
